<svg width="19" height="26" viewBox="0 0 19 26" fill="none" xmlns="http://www.w3.org/2000/svg">
<path d="M0 16.3292C0 15.0222 0.247698 13.794 0.743951 12.6437C1.24192 11.4944 1.92073 10.4899 2.78039 9.63023C3.64176 8.76885 4.6437 8.09004 5.78705 7.59379C6.93212 7.09582 8.15689 6.84641 9.46224 6.84641C10.8061 6.84641 11.8792 7.06411 12.6815 7.49779C13.4837 7.92977 14.1299 8.55287 14.6219 9.36624V2.23185C14.6219 1.92159 14.6733 1.63018 14.7762 1.35763C14.879 1.08593 15.0273 0.85023 15.2219 0.651386C15.4156 0.450827 15.6418 0.291409 15.9007 0.174846C16.1587 0.0582819 16.4432 0 16.7543 0C17.0646 0 17.3526 0.0582819 17.6183 0.174846C17.8831 0.291409 18.112 0.450827 18.3039 0.651386C18.4976 0.85023 18.6502 1.08593 18.7599 1.35763C18.8696 1.63018 18.9245 1.92159 18.9245 2.23185V16.4252C18.9125 17.7194 18.6545 18.9313 18.1497 20.0627C17.6466 21.1923 16.9677 22.1805 16.1132 23.0282C15.2604 23.8741 14.2619 24.5427 13.1169 25.0338C11.9735 25.5258 10.7556 25.7709 9.46224 25.7709C8.15689 25.7709 6.93212 25.5232 5.78705 25.0269C4.6437 24.529 3.64176 23.8536 2.78039 23.0008C1.92073 22.1463 1.24192 21.1478 0.743951 20.0044C0.247698 18.8593 0 17.6346 0 16.3292ZM4.32315 16.3292C4.32315 17.0406 4.45857 17.7066 4.73112 18.3279C5.00282 18.9476 5.37051 19.4902 5.83505 19.9564C6.3013 20.4209 6.84384 20.7886 7.46351 21.0603C8.0849 21.3329 8.75086 21.4683 9.46224 21.4683C10.1865 21.4683 10.8619 21.3329 11.4884 21.0603C12.1166 20.7886 12.6626 20.4209 13.1271 19.9564C13.5934 19.4902 13.9585 18.9476 14.2242 18.3279C14.4891 17.7066 14.6219 17.0406 14.6219 16.3292C14.6219 15.6187 14.4856 14.9536 14.2139 14.3339C13.9414 13.7125 13.5728 13.1683 13.1066 12.702C12.642 12.2358 12.0961 11.8707 11.4678 11.605C10.8413 11.3401 10.1728 11.2073 9.46224 11.2073C8.76457 11.2073 8.10204 11.3401 7.4738 11.605C6.84727 11.8707 6.3013 12.2358 5.83505 12.702C5.37051 13.1683 5.00282 13.7125 4.73112 14.3339C4.45857 14.9536 4.32315 15.6187 4.32315 16.3292Z" fill="#1B1838"/>
</svg>
