<svg width="20" height="20" viewBox="0 0 20 20" fill="none" xmlns="http://www.w3.org/2000/svg">
<path d="M10.0197 19.7709C8.72811 19.7709 7.51019 19.5232 6.36512 19.027C5.22005 18.529 4.22069 17.8536 3.36875 17.0008C2.51595 16.1463 1.84056 15.1478 1.34259 14.0044C0.84377 12.8594 0.595215 11.6346 0.595215 10.3292C0.595215 9.02219 0.84377 7.79398 1.34259 6.64377C1.84056 5.49442 2.51595 4.48991 3.36875 3.63025C4.22069 2.76888 5.22005 2.09007 6.36512 1.59382C7.51019 1.09585 8.72811 0.846436 10.0197 0.846436C11.3242 0.846436 12.5499 1.09585 13.6949 1.59382C14.84 2.09007 15.8385 2.76888 16.6913 3.63025C17.5432 4.48991 18.2152 5.49442 18.7072 6.64377C19.1983 7.79398 19.4443 9.02219 19.4443 10.3292V17.5219C19.4443 17.833 19.386 18.121 19.2694 18.3859C19.1529 18.6516 18.9969 18.8847 18.8032 19.0852C18.6112 19.2841 18.3823 19.4418 18.1175 19.5584C17.8518 19.6749 17.5638 19.7332 17.2536 19.7332C16.7367 19.7332 16.3005 19.5909 15.9439 19.3081C15.5891 19.0227 15.3474 18.6533 15.2171 18.2007C14.4672 18.6927 13.6555 19.0775 12.783 19.3561C11.9096 19.6321 10.9882 19.7709 10.0197 19.7709ZM10.0197 15.4683C10.7303 15.4683 11.3988 15.3329 12.0253 15.0604C12.6536 14.7887 13.1961 14.421 13.6538 13.9564C14.1132 13.4902 14.4749 12.9476 14.7406 12.328C15.0054 11.7066 15.1383 11.0406 15.1383 10.3292C15.1383 9.61872 15.0054 8.95362 14.7406 8.33395C14.4749 7.71256 14.1132 7.16831 13.6538 6.70205C13.1961 6.2358 12.6536 5.87068 12.0253 5.60498C11.3988 5.34014 10.7303 5.20729 10.0197 5.20729C9.32207 5.20729 8.66297 5.34014 8.04158 5.60498C7.42191 5.87068 6.87937 6.2358 6.41312 6.70205C5.94686 7.16831 5.58089 7.71256 5.31605 8.33395C5.05292 8.95362 4.92179 9.61872 4.92179 10.3292C4.92179 11.0406 5.05292 11.7066 5.31605 12.328C5.58089 12.9476 5.94344 13.4902 6.40283 13.9564C6.86223 14.421 7.40134 14.7887 8.02101 15.0604C8.6424 15.3329 9.30836 15.4683 10.0197 15.4683Z" fill="#1B1838"/>
</svg>
