<svg width="20" height="27" viewBox="0 0 20 27" fill="none" xmlns="http://www.w3.org/2000/svg">
<path d="M0.755859 2.88283C0.755859 2.59742 0.810713 2.32572 0.92042 2.06688C1.03013 1.8089 1.18097 1.58006 1.37296 1.38121C1.56666 1.18066 1.79293 1.02124 2.05177 0.904674C2.31233 0.78811 2.59688 0.729828 2.90543 0.729828C3.20198 0.729828 3.47968 0.78811 3.73852 0.904674C3.99908 1.02124 4.22535 1.18066 4.41733 1.38121C4.61104 1.58006 4.76702 1.8089 4.88359 2.06688C5.00015 2.32572 5.05843 2.59742 5.05843 2.88283V10.6583C5.05843 11.344 5.18357 11.9808 5.43555 12.5679C5.68925 13.1559 6.03551 13.6633 6.47434 14.0901C6.91317 14.5178 7.42571 14.8546 8.01367 15.1015C8.60334 15.3466 9.24102 15.4683 9.92669 15.4683C10.5986 15.4683 11.2277 15.3432 11.8157 15.0912C12.4054 14.8375 12.9128 14.4946 13.3379 14.0627C13.7647 13.629 14.1041 13.1182 14.3561 12.5302C14.6098 11.9405 14.7418 11.3028 14.7538 10.6172V2.88283C14.7538 2.59742 14.8121 2.32572 14.9286 2.06688C15.0452 1.8089 15.2063 1.58006 15.412 1.38121C15.6195 1.18066 15.856 1.02124 16.1217 0.904674C16.3865 0.78811 16.6677 0.729828 16.9651 0.729828C17.2616 0.729828 17.5393 0.78811 17.7982 0.904674C18.0587 1.02124 18.2824 1.18066 18.4701 1.38121C18.657 1.58006 18.8027 1.8089 18.9055 2.06688C19.0084 2.32572 19.0598 2.59742 19.0598 2.88283V10.6172C19.0598 11.7057 18.8815 12.7376 18.525 13.713C18.1701 14.6892 17.6825 15.5711 17.0611 16.3597C16.4414 17.1482 15.7017 17.8184 14.8429 18.3687C13.9833 18.9172 13.0482 19.3072 12.0385 19.5377V24.0769C12.0385 24.3871 11.9803 24.6751 11.8637 24.9408C11.7489 25.2057 11.5946 25.4379 11.4009 25.6368C11.2063 25.8373 10.9766 25.9933 10.7118 26.103C10.4461 26.2127 10.1718 26.2676 9.88898 26.2676C9.25302 26.2676 8.72848 26.0662 8.31536 25.6642C7.90139 25.2639 7.69483 24.7351 7.69483 24.0769V19.5C6.70061 19.242 5.77924 18.8349 4.93159 18.2795C4.08564 17.7224 3.35197 17.0556 2.73059 16.2808C2.11091 15.506 1.62666 14.6412 1.27697 13.6855C0.928991 12.7282 0.755859 11.7057 0.755859 10.6172V2.88283Z" fill="#1B1838"/>
</svg>
