<svg width="81" height="80" viewBox="0 0 81 80" fill="none" xmlns="http://www.w3.org/2000/svg">
<path d="M40.4994 6.66666C22.1327 6.66666 7.16602 21.6333 7.16602 40C7.16602 58.3667 22.1327 73.3333 40.4994 73.3333C58.866 73.3333 73.8327 58.3667 73.8327 40C73.8327 21.6333 58.866 6.66666 40.4994 6.66666ZM54.9994 51.9C54.5327 52.7 53.6994 53.1333 52.8327 53.1333C52.3993 53.1333 51.966 53.0333 51.566 52.7667L41.2327 46.6C38.666 45.0667 36.766 41.7 36.766 38.7333V25.0667C36.766 23.7 37.8994 22.5667 39.266 22.5667C40.6327 22.5667 41.766 23.7 41.766 25.0667V38.7333C41.766 39.9333 42.766 41.7 43.7994 42.3L54.1327 48.4667C55.3327 49.1667 55.7327 50.7 54.9994 51.9Z" fill="#2691B5"/>
</svg>
