<svg width="32" height="20" viewBox="0 0 32 20" fill="none" xmlns="http://www.w3.org/2000/svg">
<path d="M21.3428 10.75V14.25C21.3428 17.1667 19.559 18.3333 15.0992 18.3333H9.74754C5.2878 18.3333 3.50391 17.1667 3.50391 14.25V10.75C3.50391 7.83332 5.2878 6.66666 9.74754 6.66666H15.0992C19.559 6.66666 21.3428 7.83332 21.3428 10.75Z" stroke="#1E1E1E" stroke-width="1.5" stroke-linecap="round" stroke-linejoin="round"/>
<path d="M28.9874 5.74999V9.24999C28.9874 12.1667 27.2035 13.3333 22.7437 13.3333H21.3421V10.75C21.3421 7.83332 19.5582 6.66666 15.0985 6.66666H11.1484V5.74999C11.1484 2.83332 12.9323 1.66666 17.3921 1.66666H22.7437C27.2035 1.66666 28.9874 2.83332 28.9874 5.74999Z" stroke="#1E1E1E" stroke-width="1.5" stroke-linecap="round" stroke-linejoin="round"/>
</svg>
