<svg width="17" height="25" viewBox="0 0 17 25" fill="none" xmlns="http://www.w3.org/2000/svg">
<path d="M0.36377 2.39405C0.36377 2.08379 0.422051 1.79581 0.538615 1.53011C0.655179 1.26527 0.81374 1.03643 1.01516 0.84444C1.21571 0.650738 1.44541 0.494748 1.70425 0.378184C1.96224 0.261621 2.23993 0.203339 2.53734 0.203339C2.83389 0.203339 3.11845 0.258192 3.391 0.367899C3.6627 0.477606 3.90182 0.633596 4.10752 0.834154C4.31494 1.033 4.4795 1.26527 4.60121 1.53011C4.72463 1.79581 4.78634 2.08379 4.78634 2.39405V5.51728H11.5916C11.8882 5.51728 12.1693 5.57556 12.435 5.69212C12.6998 5.80697 12.9295 5.96125 13.1241 6.15495C13.3178 6.34951 13.4738 6.57921 13.5903 6.84405C13.7069 7.10974 13.7652 7.39087 13.7652 7.68742C13.7652 7.97112 13.7069 8.23938 13.5903 8.49308C13.4738 8.74506 13.3178 8.96448 13.1241 9.15132C12.9295 9.33903 12.6998 9.4873 12.435 9.59701C12.1693 9.70672 11.8882 9.76157 11.5916 9.76157H4.78634V15.4252C4.78634 16.1366 4.9149 16.7991 5.17374 17.4136C5.43172 18.0265 5.78741 18.5621 6.23996 19.0215C6.6925 19.4809 7.22561 19.8401 7.84099 20.098C8.45553 20.3569 9.12405 20.4854 9.84658 20.4854C10.4791 20.4854 11.0679 20.3954 11.6122 20.2146C12.1556 20.0346 12.6595 19.7432 13.1241 19.3404C13.3821 19.121 13.6332 18.9444 13.8783 18.809C14.1252 18.6744 14.4166 18.6067 14.7525 18.6067C14.9994 18.6067 15.2377 18.6581 15.4691 18.761C15.7022 18.8638 15.9088 19.0095 16.0896 19.1964C16.2722 19.3841 16.4187 19.6044 16.5284 19.8581C16.6381 20.11 16.693 20.3774 16.693 20.6603C16.693 20.9963 16.6278 21.3202 16.4976 21.6305C16.369 21.9416 16.1762 22.2193 15.9182 22.4636C15.1022 23.2384 14.18 23.8204 13.1515 24.2086C12.1247 24.5969 11.0234 24.7914 9.84658 24.7914C8.52752 24.7914 7.29332 24.5497 6.14396 24.0646C4.99375 23.5804 3.99182 22.9153 3.1373 22.0693C2.2845 21.2217 1.60912 20.2266 1.11115 19.0832C0.612325 17.9382 0.36377 16.7065 0.36377 15.3875V2.39405Z" fill="#1B1838"/>
</svg>
