<svg width="20" height="20" viewBox="0 0 20 20" fill="none" xmlns="http://www.w3.org/2000/svg">
<path d="M9.16602 1.66667H7.49935C3.33268 1.66667 1.66602 3.33333 1.66602 7.5V12.5C1.66602 16.6667 3.33268 18.3333 7.49935 18.3333H12.4993C16.666 18.3333 18.3327 16.6667 18.3327 12.5V10.8333" stroke="#868686" stroke-width="1.5" stroke-linecap="round" stroke-linejoin="round"/>
<path d="M13.3675 2.51667L6.80088 9.08333C6.55088 9.33333 6.30088 9.825 6.25088 10.1833L5.89254 12.6917C5.75921 13.6 6.40088 14.2333 7.30921 14.1083L9.81754 13.75C10.1675 13.7 10.6592 13.45 10.9175 13.2L17.4842 6.63333C18.6175 5.5 19.1509 4.18333 17.4842 2.51667C15.8175 0.850001 14.5009 1.38333 13.3675 2.51667Z" stroke="#868686" stroke-width="1.5" stroke-miterlimit="10" stroke-linecap="round" stroke-linejoin="round"/>
<path d="M12.4258 3.45833C12.9841 5.45 14.5424 7.00833 16.5424 7.575" stroke="#868686" stroke-width="1.5" stroke-miterlimit="10" stroke-linecap="round" stroke-linejoin="round"/>
</svg>
