<svg width="20" height="20" viewBox="0 0 20 20" fill="none" xmlns="http://www.w3.org/2000/svg">
<path d="M9.16602 1.66669H7.49935C3.33268 1.66669 1.66602 3.33335 1.66602 7.50002V12.5C1.66602 16.6667 3.33268 18.3334 7.49935 18.3334H12.4993C16.666 18.3334 18.3327 16.6667 18.3327 12.5V10.8334" stroke="#868686" stroke-width="1.5" stroke-linecap="round" stroke-linejoin="round"/>
<path d="M13.3675 2.51669L6.80088 9.08336C6.55088 9.33336 6.30088 9.82503 6.25088 10.1834L5.89254 12.6917C5.75921 13.6 6.40088 14.2334 7.30921 14.1084L9.81754 13.75C10.1675 13.7 10.6592 13.45 10.9175 13.2L17.4842 6.63336C18.6175 5.50003 19.1509 4.18336 17.4842 2.51669C15.8175 0.850027 14.5009 1.38336 13.3675 2.51669Z" stroke="#868686" stroke-width="1.5" stroke-miterlimit="10" stroke-linecap="round" stroke-linejoin="round"/>
<path d="M12.4258 3.45831C12.9841 5.44998 14.5424 7.00831 16.5424 7.57498" stroke="#868686" stroke-width="1.5" stroke-miterlimit="10" stroke-linecap="round" stroke-linejoin="round"/>
</svg>
