<svg width="39" height="20" viewBox="0 0 39 20" fill="none" xmlns="http://www.w3.org/2000/svg">
<path d="M5.26553 10.3292C5.26553 11.0406 5.40095 11.7066 5.6735 12.328C5.9452 12.9476 6.31289 13.4902 6.77743 13.9564C7.24368 14.421 7.78622 14.7887 8.40589 15.0604C9.02728 15.3329 9.69324 15.4683 10.4046 15.4683C11.1289 15.4683 11.8042 15.3329 12.4308 15.0604C13.059 14.7887 13.605 14.421 14.0695 13.9564C14.5358 13.4902 14.9009 12.9476 15.1666 12.328C15.4314 11.7066 15.5643 11.0406 15.5643 10.3292C15.5643 9.61872 15.428 8.95362 15.1563 8.33395C14.8838 7.71256 14.5152 7.16831 14.049 6.70205C13.5844 6.2358 13.0384 5.87068 12.4102 5.60498C11.7837 5.34014 11.1151 5.20729 10.4046 5.20729C9.70695 5.20729 9.04442 5.34014 8.41618 5.60498C7.78965 5.87068 7.24368 6.2358 6.77743 6.70205C6.31289 7.16831 5.9452 7.71256 5.6735 8.33395C5.40095 8.95362 5.26553 9.61872 5.26553 10.3292ZM0.942383 10.3292C0.942383 9.02219 1.19008 7.79398 1.68633 6.64377C2.1843 5.49442 2.86311 4.48991 3.72277 3.63025C4.58414 2.76888 5.58608 2.09007 6.72943 1.59382C7.8745 1.09585 9.09928 0.846436 10.4046 0.846436C11.7091 0.846436 12.9365 1.09585 14.0867 1.59382C15.2386 2.09007 16.2405 2.76888 17.0933 3.63025C17.9478 4.48991 18.6232 5.49442 19.1195 6.64377C19.6174 7.79398 19.8669 9.02219 19.8669 10.3292C19.8669 11.6346 19.6174 12.8594 19.1195 14.0044C18.6232 15.1478 17.9478 16.1463 17.0933 17.0008C16.2405 17.8536 15.2386 18.529 14.0867 19.027C12.9365 19.5232 11.7091 19.7709 10.4046 19.7709C9.09928 19.7709 7.8745 19.5232 6.72943 19.027C5.58608 18.529 4.58414 17.8536 3.72277 17.0008C2.86311 16.1463 2.1843 15.1478 1.68633 14.0044C1.19008 12.8594 0.942383 11.6346 0.942383 10.3292Z" fill="#1B1838"/>
<path d="M20.0107 10.0172C20.0107 8.75133 20.2456 7.56255 20.717 6.45177C21.1901 5.33927 21.8363 4.36562 22.6574 3.53082C23.4802 2.69687 24.4402 2.0412 25.5372 1.56294C26.636 1.08555 27.8188 0.84642 29.0856 0.84642C30.3541 0.84642 31.5471 1.08555 32.6648 1.56294C33.7824 2.0412 34.7578 2.69687 35.5926 3.53082C36.4265 4.36562 37.0856 5.33927 37.5707 6.45177C38.055 7.56255 38.2975 8.75133 38.2975 10.0172V17.443C38.2975 17.743 38.2427 18.0216 38.133 18.2796C38.0233 18.5384 37.8741 18.7612 37.6873 18.9481C37.4996 19.1358 37.2768 19.2841 37.0188 19.3938C36.7599 19.5035 36.4822 19.5583 36.1857 19.5583C35.8883 19.5583 35.6071 19.5035 35.3423 19.3938C35.0766 19.2841 34.8435 19.1358 34.6429 18.9481C34.4415 18.7612 34.2829 18.5384 34.1664 18.2796C34.0515 18.0216 33.995 17.743 33.995 17.443V10.0378C33.9813 9.36586 33.8415 8.73676 33.5767 8.1488C33.311 7.55912 32.9562 7.04487 32.5105 6.60604C32.0648 6.1655 31.5471 5.81581 30.9575 5.55697C30.3695 5.29899 29.7455 5.16957 29.0856 5.16957C28.4016 5.16957 27.7725 5.29641 27.1966 5.55011C26.6206 5.8021 26.1183 6.14493 25.6915 6.57862C25.2664 7.01059 24.9338 7.52398 24.6939 8.11794C24.4556 8.71276 24.3373 9.34529 24.3373 10.0172V17.443C24.3373 17.743 24.2825 18.0216 24.1728 18.2796C24.063 18.5384 23.9139 18.7612 23.7271 18.9481C23.5394 19.1358 23.3157 19.2841 23.0551 19.3938C22.7963 19.5035 22.5254 19.5583 22.2426 19.5583C21.9452 19.5583 21.6606 19.5035 21.3889 19.3938C21.1164 19.2841 20.8798 19.1358 20.6793 18.9481C20.4804 18.7612 20.3193 18.5384 20.1959 18.2796C20.0725 18.0216 20.0107 17.743 20.0107 17.443V10.0172Z" fill="#1B1838"/>
</svg>
