<svg width="85" height="28" viewBox="0 0 85 28" fill="none" xmlns="http://www.w3.org/2000/svg">
<path d="M0.585205 14.0836C0.585205 13.0205 0.771401 12.0215 1.14444 11.0859C1.51876 10.1511 2.02903 9.33407 2.67523 8.63485C3.32273 7.93424 4.07589 7.38212 4.93535 6.97848C5.7961 6.57345 6.71677 6.37058 7.69801 6.37058C8.70823 6.37058 9.51486 6.54766 10.1179 6.9004C10.7209 7.25175 11.2067 7.75856 11.5765 8.42014V2.61726C11.5765 2.3649 11.6152 2.12787 11.6925 1.90619C11.7698 1.6852 11.8813 1.49349 12.0275 1.33176C12.1731 1.16863 12.3432 1.03896 12.5378 0.944155C12.7317 0.849346 12.9456 0.801941 13.1795 0.801941C13.4127 0.801941 13.6292 0.849346 13.8289 0.944155C14.028 1.03896 14.2 1.16863 14.3444 1.33176C14.49 1.49349 14.6046 1.6852 14.6871 1.90619C14.7696 2.12787 14.8108 2.3649 14.8108 2.61726V14.1617C14.8018 15.2143 14.6079 16.2001 14.2284 17.1203C13.8502 18.0391 13.3399 18.8429 12.6976 19.5323C12.0565 20.2204 11.3059 20.7642 10.4452 21.1636C9.58573 21.5638 8.67022 21.7631 7.69801 21.7631C6.71677 21.7631 5.7961 21.5617 4.93535 21.158C4.07589 20.753 3.32273 20.2037 2.67523 19.51C2.02903 18.815 1.51876 18.0028 1.14444 17.0729C0.771401 16.1415 0.585205 15.1453 0.585205 14.0836ZM3.83493 14.0836C3.83493 14.6622 3.93673 15.2039 4.14161 15.7093C4.34584 16.2133 4.62224 16.6546 4.97143 17.0338C5.32192 17.4117 5.72974 17.7107 6.19556 17.9317C6.66266 18.1534 7.16326 18.2636 7.69801 18.2636C8.24242 18.2636 8.75011 18.1534 9.22107 17.9317C9.69333 17.7107 10.1037 17.4117 10.4529 17.0338C10.8034 16.6546 11.0779 16.2133 11.2776 15.7093C11.4767 15.2039 11.5765 14.6622 11.5765 14.0836C11.5765 13.5057 11.4741 12.9647 11.2699 12.4607C11.065 11.9553 10.788 11.5126 10.4375 11.1334C10.0883 10.7541 9.67786 10.4571 9.20561 10.241C8.73464 10.0256 8.23211 9.91756 7.69801 9.91756C7.17357 9.91756 6.67554 10.0256 6.20329 10.241C5.73232 10.4571 5.32192 10.7541 4.97143 11.1334C4.62224 11.5126 4.34584 11.9553 4.14161 12.4607C3.93673 12.9647 3.83493 13.5057 3.83493 14.0836Z" fill="#1B1838"/>
<path d="M22.3993 21.7632C21.4284 21.7632 20.5129 21.5617 19.6521 21.158C18.7914 20.753 18.0402 20.2037 17.3997 19.51C16.7587 18.815 16.251 18.0029 15.8767 17.0729C15.5017 16.1415 15.3149 15.1453 15.3149 14.0836C15.3149 13.0205 15.5017 12.0215 15.8767 11.086C16.251 10.1511 16.7587 9.33409 17.3997 8.63487C18.0402 7.93426 18.7914 7.38214 19.6521 6.9785C20.5129 6.57347 21.4284 6.37061 22.3993 6.37061C23.3799 6.37061 24.3012 6.57347 25.162 6.9785C26.0227 7.38214 26.7733 7.93426 27.4144 8.63487C28.0548 9.33409 28.5599 10.1511 28.9297 11.086C29.2989 12.0215 29.4838 13.0205 29.4838 14.0836V19.9339C29.4838 20.1869 29.44 20.4212 29.3523 20.6366C29.2647 20.8527 29.1475 21.0423 29.0019 21.2055C28.8575 21.3672 28.6855 21.4955 28.4864 21.5903C28.2867 21.6851 28.0702 21.7325 27.837 21.7325C27.4485 21.7325 27.1206 21.6168 26.8526 21.3867C26.5858 21.1546 26.4041 20.8541 26.3062 20.486C25.7425 20.8862 25.1323 21.1992 24.4765 21.4257C23.8199 21.6502 23.1274 21.7632 22.3993 21.7632ZM22.3993 18.2636C22.9334 18.2636 23.436 18.1534 23.9069 17.9317C24.3792 17.7108 24.787 17.4117 25.1311 17.0338C25.4764 16.6546 25.7483 16.2133 25.948 15.7093C26.1471 15.2039 26.2469 14.6622 26.2469 14.0836C26.2469 13.5057 26.1471 12.9647 25.948 12.4607C25.7483 11.9553 25.4764 11.5126 25.1311 11.1334C24.787 10.7541 24.3792 10.4572 23.9069 10.241C23.436 10.0256 22.9334 9.91758 22.3993 9.91758C21.8749 9.91758 21.3794 10.0256 20.9123 10.241C20.4465 10.4572 20.0387 10.7541 19.6882 11.1334C19.3377 11.5126 19.0626 11.9553 18.8635 12.4607C18.6657 12.9647 18.5672 13.5057 18.5672 14.0836C18.5672 14.6622 18.6657 15.2039 18.8635 15.7093C19.0626 16.2133 19.3351 16.6546 19.6805 17.0338C20.0258 17.4117 20.4311 17.7108 20.8969 17.9317C21.364 18.1534 21.8646 18.2636 22.3993 18.2636Z" fill="#1B1838"/>
<path d="M30.4697 8.02694C30.4697 7.79479 30.5109 7.57381 30.5934 7.36327C30.6759 7.15344 30.7893 6.96731 30.9336 6.80557C31.0792 6.64245 31.2493 6.51278 31.4439 6.41797C31.6397 6.32316 31.8536 6.27576 32.0856 6.27576C32.3085 6.27576 32.5172 6.32316 32.7118 6.41797C32.9077 6.51278 33.0777 6.64245 33.2221 6.80557C33.3677 6.96731 33.4849 7.15344 33.5725 7.36327C33.6602 7.57381 33.704 7.79479 33.704 8.02694V14.3513C33.704 14.909 33.798 15.4269 33.9875 15.9045C34.1782 16.3827 34.4385 16.7954 34.7683 17.1426C35.0982 17.4904 35.4835 17.7644 35.9254 17.9652C36.3687 18.1645 36.848 18.2635 37.3635 18.2635C37.8686 18.2635 38.3415 18.1618 38.7834 17.9568C39.2267 17.7505 39.6081 17.4716 39.9277 17.1203C40.2485 16.7675 40.5037 16.352 40.6931 15.8738C40.8838 15.3942 40.983 14.8755 40.992 14.3178V8.02694C40.992 7.79479 41.0358 7.57381 41.1235 7.36327C41.2111 7.15344 41.3322 6.96731 41.4868 6.80557C41.6427 6.64245 41.8206 6.51278 42.0203 6.41797C42.2194 6.32316 42.4307 6.27576 42.6543 6.27576C42.8772 6.27576 43.0859 6.32316 43.2805 6.41797C43.4763 6.51278 43.6445 6.64245 43.7856 6.80557C43.9261 6.96731 44.0356 7.15344 44.1129 7.36327C44.1902 7.57381 44.2289 7.79479 44.2289 8.02694V14.3178C44.2289 15.2032 44.0949 16.0425 43.8268 16.8358C43.5601 17.6299 43.1935 18.3472 42.7264 18.9885C42.2606 19.6299 41.7046 20.1751 41.059 20.6226C40.4128 21.0688 39.7099 21.386 38.951 21.5735V25.2655C38.951 25.5178 38.9071 25.7521 38.8195 25.9682C38.7332 26.1836 38.6172 26.3725 38.4716 26.5342C38.3254 26.6974 38.1527 26.8242 37.9536 26.9135C37.7539 27.0027 37.5477 27.0473 37.3351 27.0473C36.8571 27.0473 36.4628 26.8835 36.1522 26.5566C35.841 26.231 35.6858 25.8009 35.6858 25.2655V21.5428C34.9384 21.333 34.2458 21.0018 33.6086 20.5501C32.9727 20.097 32.4212 19.5546 31.9541 18.9244C31.4883 18.2942 31.1243 17.5908 30.8614 16.8135C30.5999 16.0348 30.4697 15.2032 30.4697 14.3178V8.02694Z" fill="#1B1838"/>
<path d="M45.2091 3.56256C45.2091 3.3102 45.2529 3.07596 45.3406 2.85985C45.4282 2.64444 45.5474 2.45831 45.6988 2.30215C45.8495 2.1446 46.0222 2.01772 46.2168 1.92291C46.4107 1.82811 46.6194 1.7807 46.843 1.7807C47.0659 1.7807 47.2798 1.82532 47.4847 1.91455C47.6889 2.00378 47.8687 2.13066 48.0233 2.29379C48.1792 2.45552 48.3029 2.64444 48.3944 2.85985C48.4872 3.07596 48.5336 3.3102 48.5336 3.56256V6.10288H53.6491C53.8721 6.10288 54.0834 6.15029 54.2831 6.2451C54.4822 6.33851 54.6548 6.46399 54.8011 6.62154C54.9467 6.77979 55.064 6.96662 55.1516 7.18203C55.2392 7.39814 55.283 7.6268 55.283 7.86801C55.283 8.09876 55.2392 8.31696 55.1516 8.52331C55.064 8.72826 54.9467 8.90672 54.8011 9.0587C54.6548 9.21137 54.4822 9.33197 54.2831 9.4212C54.0834 9.51044 53.8721 9.55505 53.6491 9.55505H48.5336V14.1617C48.5336 14.7403 48.6302 15.2792 48.8248 15.779C49.0187 16.2774 49.2861 16.7131 49.6263 17.0868C49.9665 17.4605 50.3672 17.7526 50.8298 17.9624C51.2917 18.1729 51.7943 18.2775 52.3374 18.2775C52.8129 18.2775 53.2555 18.2043 53.6646 18.0572C54.0731 17.9108 54.4519 17.6738 54.8011 17.3461C54.995 17.1677 55.1838 17.0241 55.3681 16.9139C55.5536 16.8045 55.7727 16.7494 56.0252 16.7494C56.2108 16.7494 56.3899 16.7912 56.5638 16.8749C56.7391 16.9585 56.8943 17.077 57.0303 17.229C57.1675 17.3817 57.2777 17.5608 57.3602 17.7672C57.4426 17.9722 57.4839 18.1897 57.4839 18.4197C57.4839 18.693 57.4349 18.9565 57.337 19.2089C57.2403 19.4619 57.0954 19.6878 56.9014 19.8865C56.2881 20.5167 55.5948 20.99 54.8217 21.3058C54.0499 21.6216 53.222 21.7799 52.3374 21.7799C51.3458 21.7799 50.4181 21.5833 49.5541 21.1887C48.6895 20.7948 47.9363 20.2538 47.294 19.5658C46.6529 18.8763 46.1453 18.067 45.7709 17.137C45.396 16.2056 45.2091 15.2039 45.2091 14.131V3.56256Z" fill="#1B1838"/>
<path d="M60.1695 14.0836C60.1695 14.6622 60.2713 15.2039 60.4762 15.7093C60.6804 16.2133 60.9568 16.6546 61.306 17.0338C61.6565 17.4117 62.0643 17.7108 62.5301 17.9317C62.9972 18.1534 63.4978 18.2636 64.0326 18.2636C64.577 18.2636 65.0847 18.1534 65.5556 17.9317C66.0279 17.7108 66.4383 17.4117 66.7875 17.0338C67.138 16.6546 67.4124 16.2133 67.6122 15.7093C67.8113 15.2039 67.9111 14.6622 67.9111 14.0836C67.9111 13.5057 67.8087 12.9647 67.6044 12.4607C67.3996 11.9553 67.1225 11.5126 66.772 11.1334C66.4228 10.7541 66.0124 10.4572 65.5402 10.241C65.0692 10.0256 64.5667 9.91758 64.0326 9.91758C63.5081 9.91758 63.0101 10.0256 62.5379 10.241C62.0669 10.4572 61.6565 10.7541 61.306 11.1334C60.9568 11.5126 60.6804 11.9553 60.4762 12.4607C60.2713 12.9647 60.1695 13.5057 60.1695 14.0836ZM56.9198 14.0836C56.9198 13.0205 57.106 12.0215 57.479 11.086C57.8533 10.1511 58.3636 9.33409 59.0098 8.63487C59.6573 7.93426 60.4105 7.38214 61.2699 6.9785C62.1307 6.57347 63.0513 6.37061 64.0326 6.37061C65.0132 6.37061 65.9358 6.57347 66.8004 6.9785C67.6663 7.38214 68.4194 7.93426 69.0605 8.63487C69.7028 9.33409 70.2105 10.1511 70.5836 11.086C70.9579 12.0215 71.1454 13.0205 71.1454 14.0836C71.1454 15.1453 70.9579 16.1415 70.5836 17.0729C70.2105 18.0029 69.7028 18.815 69.0605 19.51C68.4194 20.2037 67.6663 20.753 66.8004 21.158C65.9358 21.5617 65.0132 21.7632 64.0326 21.7632C63.0513 21.7632 62.1307 21.5617 61.2699 21.158C60.4105 20.753 59.6573 20.2037 59.0098 19.51C58.3636 18.815 57.8533 18.0029 57.479 17.0729C57.106 16.1415 56.9198 15.1453 56.9198 14.0836Z" fill="#1B1838"/>
<path d="M71.2537 13.8299C71.2537 12.8002 71.4302 11.8333 71.7846 10.9298C72.1402 10.0249 72.626 9.23301 73.2432 8.554C73.8617 7.8757 74.5833 7.3424 75.408 6.9534C76.2339 6.5651 77.123 6.37061 78.0753 6.37061C79.0288 6.37061 79.9256 6.5651 80.7658 6.9534C81.6059 7.3424 82.3391 7.8757 82.9666 8.554C83.5935 9.23301 84.0889 10.0249 84.4536 10.9298C84.8176 11.8333 85 12.8002 85 13.8299V19.8698C85 20.1138 84.9587 20.3403 84.8763 20.5502C84.7938 20.7607 84.6817 20.9419 84.5412 21.0939C84.4001 21.2466 84.2326 21.3672 84.0387 21.4564C83.8441 21.5456 83.6354 21.5903 83.4125 21.5903C83.1889 21.5903 82.9776 21.5456 82.7785 21.4564C82.5788 21.3672 82.4035 21.2466 82.2528 21.0939C82.1014 20.9419 81.9822 20.7607 81.8945 20.5502C81.8082 20.3403 81.7657 20.1138 81.7657 19.8698V13.8466C81.7554 13.3 81.6504 12.7883 81.4513 12.3101C81.2516 11.8305 80.9848 11.4122 80.6498 11.0553C80.3148 10.697 79.9256 10.4125 79.4824 10.202C79.0404 9.99218 78.5714 9.88691 78.0753 9.88691C77.5611 9.88691 77.0883 9.99008 76.6553 10.1964C76.2223 10.4014 75.8448 10.6802 75.524 11.033C75.2044 11.3843 74.9544 11.8019 74.774 12.285C74.5949 12.7688 74.506 13.2833 74.506 13.8299V19.8698C74.506 20.1138 74.4648 20.3403 74.3823 20.5502C74.2998 20.7607 74.1877 20.9419 74.0473 21.0939C73.9062 21.2466 73.738 21.3672 73.5422 21.4564C73.3476 21.5456 73.144 21.5903 72.9314 21.5903C72.7078 21.5903 72.4939 21.5456 72.2897 21.4564C72.0848 21.3672 71.907 21.2466 71.7562 21.0939C71.6068 20.9419 71.4856 20.7607 71.3929 20.5502C71.3001 20.3403 71.2537 20.1138 71.2537 19.8698V13.8299Z" fill="#1B1838"/>
</svg>
