<svg width="28" height="31" viewBox="0 0 28 31" fill="none" xmlns="http://www.w3.org/2000/svg">
<path d="M22.2206 30.9652H5.71769C2.57303 30.9652 0 28.1812 0 24.7785V6.92183C0 3.5192 2.57303 0.735107 5.71769 0.735107H22.2206C25.3653 0.735107 27.9383 3.5192 27.9383 6.92183V24.7785C27.9383 28.1812 25.3653 30.9652 22.2206 30.9652Z" fill="#66CEF5"/>
<path d="M8.09256 15.8502L3.95945 24.3165C3.3375 25.5906 4.19127 27.1231 5.52278 27.1231H17.7846C18.4163 27.1231 18.9999 26.7585 19.3156 26.1665L23.6368 18.0683C24.3691 16.6956 24.3691 15.0048 23.6368 13.6321L19.9857 6.78926C19.2551 5.42056 17.9054 4.57724 16.4446 4.57724H9.79533C8.44365 4.57724 7.59205 6.15149 8.25347 7.4268C8.56639 8.03008 9.15603 8.40341 9.79533 8.40341H15.5312C16.1629 8.40341 16.7465 8.76805 17.0625 9.36006L19.9376 14.7483C20.2533 15.3403 20.2533 16.0696 19.9376 16.6616L17.0625 22.05C16.7465 22.6418 16.1629 23.0065 15.5312 23.0065H9.90723C9.39111 23.0065 9.06343 22.4079 9.31174 21.9182L12.3877 15.8502" fill="white"/>
<path d="M11.9062 11.868L5.45295 16.5408C5.3404 16.6222 5.35146 16.805 5.47312 16.8697L12.4397 20.5804C12.5611 20.6452 12.7021 20.5434 12.693 20.397L12.1797 12.0137C12.1708 11.8673 12.0188 11.7863 11.9062 11.868Z" fill="white"/>
</svg>
