<svg width="38" height="38" viewBox="0 0 38 38" fill="none" xmlns="http://www.w3.org/2000/svg">
<path d="M29.5603 37.1667H7.60631C3.42293 37.1667 0 33.7437 0 29.5603V7.60631C0 3.42293 3.42293 0 7.60631 0H29.5603C33.7437 0 37.1667 3.42293 37.1667 7.60631V29.5603C37.1667 33.7437 33.7437 37.1667 29.5603 37.1667Z" fill="#66CEF5"/>
<path d="M10.7655 18.5833L5.26721 28.9923C4.43982 30.5588 5.5756 32.4429 7.34693 32.4429H23.659C24.4993 32.4429 25.2757 31.9946 25.6957 31.2668L31.4442 21.3104C32.4184 19.6228 32.4184 17.5439 31.4442 15.8562L26.5871 7.44331C25.6152 5.76056 23.8197 4.72372 21.8764 4.72372H13.0307C11.2326 4.72372 10.0997 6.6592 10.9796 8.22714C11.3959 8.96884 12.1803 9.42783 13.0307 9.42783H20.6613C21.5017 9.42783 22.278 9.87614 22.6983 10.604L26.5231 17.2286C26.9431 17.9564 26.9431 18.8531 26.5231 19.5809L22.6983 26.2058C22.278 26.9334 21.5017 27.3817 20.6613 27.3817H13.1796C12.493 27.3817 12.0571 26.6457 12.3874 26.0437L16.4793 18.5833" fill="white"/>
<path d="M15.8392 13.6874L7.25433 19.4323C7.10461 19.5325 7.11932 19.7572 7.28116 19.8368L16.5489 24.399C16.7104 24.4786 16.898 24.3534 16.8858 24.1734L16.203 13.8665C16.1912 13.6865 15.9889 13.587 15.8392 13.6874Z" fill="white"/>
</svg>
