<svg width="25" height="24" viewBox="0 0 25 24" fill="none" xmlns="http://www.w3.org/2000/svg">
<path d="M10.75 10.03C10.75 10.57 10.9 10.65 11.24 10.77L11.75 10.95V9.25H11.45C11.07 9.25 10.75 9.6 10.75 10.03Z" fill="#2691B5"/>
<path d="M13.25 14.75H13.55C13.94 14.75 14.25 14.4 14.25 13.97C14.25 13.43 14.1 13.35 13.76 13.23L13.25 13.05V14.75Z" fill="#2691B5"/>
<path d="M20.08 5.48L18.03 7.53C17.88 7.68 17.69 7.75 17.5 7.75C17.31 7.75 17.12 7.68 16.97 7.53C16.68 7.24 16.68 6.76 16.97 6.47L19.02 4.42C17.26 2.92 14.99 2 12.5 2C6.98 2 2.5 6.48 2.5 12C2.5 17.52 6.98 22 12.5 22C18.02 22 22.5 17.52 22.5 12C22.5 9.51 21.58 7.24 20.08 5.48ZM14.25 11.82C14.89 12.05 15.75 12.51 15.75 13.98C15.75 15.23 14.76 16.26 13.55 16.26H13.25V16.51C13.25 16.92 12.91 17.26 12.5 17.26C12.09 17.26 11.75 16.92 11.75 16.51V16.26H11.67C10.34 16.26 9.25 15.14 9.25 13.76C9.25 13.34 9.59 13 10 13C10.41 13 10.75 13.34 10.75 13.75C10.75 14.3 11.16 14.75 11.67 14.75H11.75V12.53L10.75 12.18C10.11 11.95 9.25 11.49 9.25 10.02C9.25 8.77 10.24 7.74 11.45 7.74H11.75V7.5C11.75 7.09 12.09 6.75 12.5 6.75C12.91 6.75 13.25 7.09 13.25 7.5V7.75H13.33C14.66 7.75 15.75 8.87 15.75 10.25C15.75 10.66 15.41 11 15 11C14.59 11 14.25 10.66 14.25 10.25C14.25 9.7 13.84 9.25 13.33 9.25H13.25V11.47L14.25 11.82Z" fill="#2691B5"/>
<path d="M23.19 1.71C23.11 1.53 22.97 1.38 22.78 1.3C22.69 1.27 22.6 1.25 22.5 1.25H18.5C18.09 1.25 17.75 1.59 17.75 2C17.75 2.41 18.09 2.75 18.5 2.75H20.69L19.02 4.42C19.4 4.75 19.75 5.1 20.08 5.48L21.75 3.81V6C21.75 6.41 22.09 6.75 22.5 6.75C22.91 6.75 23.25 6.41 23.25 6V2C23.25 1.9 23.23 1.81 23.19 1.71Z" fill="#2691B5"/>
</svg>
