<svg width="20" height="20" viewBox="0 0 20 20" fill="none" xmlns="http://www.w3.org/2000/svg">
<path d="M13.1503 1.66666H6.85033C3.70033 1.66666 2.91699 2.50832 2.91699 5.86666V15.25C2.91699 17.4667 4.13366 17.9917 5.60866 16.4083L5.61699 16.4C6.30033 15.675 7.34199 15.7333 7.93366 16.525L8.77533 17.65C9.45033 18.5417 10.542 18.5417 11.217 17.65L12.0587 16.525C12.6587 15.725 13.7003 15.6667 14.3837 16.4C15.867 17.9833 17.0753 17.4583 17.0753 15.2417V5.86666C17.0837 2.50832 16.3003 1.66666 13.1503 1.66666ZM12.367 8.32499L11.9503 8.74999H11.942L9.41699 11.275C9.30866 11.3833 9.08366 11.5 8.92533 11.5167L7.80033 11.6833C7.39199 11.7417 7.10866 11.45 7.16699 11.05L7.32533 9.91666C7.35033 9.75832 7.45866 9.54166 7.56699 9.42499L10.1003 6.89999L10.517 6.47499C10.792 6.19999 11.1003 5.99999 11.4337 5.99999C11.717 5.99999 12.0253 6.13332 12.367 6.47499C13.117 7.22499 12.8753 7.81666 12.367 8.32499Z" fill="#2691B5"/>
</svg>
